<svg width="250" height="250" viewBox="0 0 38 38" fill="none" xmlns="http://www.w3.org/2000/svg">
<rect width="38" height="38" fill="#1A3553"/>
<path d="M27.5756 5H11.0202C7.70907 5 5 7.70907 5 11.0202V27.5756C5 30.8867 7.70907 33.5957 11.0202 33.5957H27.5756C30.8867 33.5957 33.5957 30.8867 33.5957 27.5756V11.0202C33.5957 7.70907 30.8867 5 27.5756 5ZM30.8867 27.5756C30.8867 29.3816 29.4122 30.8867 27.5756 30.8867H11.0202C9.21411 30.8867 7.70907 29.4122 7.70907 27.5756V11.0202C7.70907 9.21411 9.18353 7.70907 11.0202 7.70907H27.5756C29.3816 7.70907 30.8867 9.18353 30.8867 11.0202V27.5756Z" fill="white"/>
<path d="M16.9804 14.964C16.9804 13.5495 15.8363 12.4054 14.4218 12.4054C13.0074 12.4054 11.8633 13.5495 11.8633 14.964C11.8633 16.3785 13.0074 17.5225 14.4218 17.5225C15.8363 17.5225 16.9804 16.3785 16.9804 14.964Z" fill="white"/>
<path d="M26.7033 14.964C26.7033 16.3761 25.5568 17.5225 24.1447 17.5225C22.7314 17.5225 21.5861 16.3761 21.5861 14.964C21.5861 13.5506 22.7314 12.4054 24.1447 12.4054C25.5568 12.4054 26.7033 13.5506 26.7033 14.964Z" fill="white"/>
<path d="M22.7902 21.1039H15.8059C15.2039 21.1039 14.6618 21.4049 14.3315 21.9164C13.9999 22.3985 13.9705 23.0299 14.181 23.5414C15.084 25.5579 17.0711 26.8831 19.2674 26.8831C21.465 26.8831 23.4815 25.5886 24.3538 23.5414C24.5949 22.9993 24.5349 22.3973 24.2033 21.9164C23.9329 21.4049 23.392 21.1039 22.79 21.1039H22.7902Z" fill="white"/>
</svg>
